<svg xmlns="http://www.w3.org/2000/svg" viewBox="0 0 160 40" fill="none">
  <path d="M44.6 22.8c0 1 .1 1.8.3 2.4.2.6.5 1.2.9 1.9.1.2.2.4.2.5 0 .2-.1.4-.4.6l-1.2.8c-.2.1-.3.2-.5.2-.2 0-.4-.1-.6-.3-.3-.3-.5-.6-.7-1-.2-.4-.4-.7-.6-1.2-1.5 1.8-3.4 2.7-5.7 2.7-1.6 0-2.9-.5-3.9-1.4-1-.9-1.5-2.2-1.5-3.7 0-1.6.6-3 1.8-3.9 1.2-1 2.7-1.5 4.7-1.5.7 0 1.3 0 2 .1.7.1 1.4.2 2.1.4v-1.4c0-1.5-.3-2.5-1-3.1-.6-.6-1.7-.9-3.2-.9-.7 0-1.4.1-2.1.3-.7.2-1.4.4-2.1.8-.3.2-.5.2-.7.3-.2 0-.3-.1-.3-.4v-1c0-.3 0-.5.1-.6.1-.1.3-.3.6-.4.7-.4 1.5-.7 2.4-.9.9-.3 1.9-.4 2.9-.4 2.2 0 3.8.5 4.8 1.5 1 1 1.5 2.6 1.5 4.7v6.1zm-7.8 2.9c.6 0 1.3-.1 2-.4.7-.3 1.3-.7 1.8-1.3.3-.4.5-.8.6-1.3.1-.5.2-1.1.2-1.8v-.9c-.5-.1-1.1-.3-1.7-.3-.6-.1-1.2-.1-1.8-.1-1.3 0-2.2.2-2.9.7-.7.5-1 1.2-1 2.1 0 .9.2 1.5.7 2 .5.4 1.2.7 2.1.7v-.4zm15.4 2c-.3 0-.5 0-.6-.1-.2-.1-.3-.3-.4-.6l-4.5-14.8c-.1-.3-.2-.6-.2-.7 0-.3.1-.4.4-.4h1.8c.3 0 .5 0 .7.1.1.1.3.3.3.6l3.2 12.7 3-12.7c.1-.4.2-.5.3-.6.2-.1.4-.2.7-.2h1.5c.3 0 .5.1.7.2.1.1.3.3.3.6l3 12.9 3.3-12.9c.1-.3.2-.5.4-.6.1-.1.4-.1.6-.1h1.7c.3 0 .4.1.4.4 0 .1 0 .2-.1.4 0 .1-.1.3-.1.4l-4.6 14.8c-.1.4-.2.5-.4.6-.2.1-.4.2-.6.2h-1.6c-.3 0-.5-.1-.7-.2-.1-.1-.3-.3-.3-.7l-3-12.4-2.9 12.4c-.1.4-.2.5-.3.7-.2.1-.4.2-.7.2h-1.6zm24.5.7c-1 0-2.1-.1-3-.4-1-.3-1.7-.6-2.2-1-.3-.2-.5-.4-.6-.6 0-.2-.1-.4-.1-.5v-1.1c0-.3.1-.5.4-.5.1 0 .2 0 .3.1.1.1.3.1.4.2.7.3 1.4.6 2.2.8.8.2 1.5.3 2.3.3 1.2 0 2.2-.2 2.8-.7.6-.5.9-1.1.9-2 0-.6-.2-1.1-.5-1.5-.4-.4-1-.7-2-1.1l-2.8-1c-1.5-.5-2.5-1.2-3.2-2.1-.6-.8-1-1.8-1-2.8 0-.8.2-1.5.5-2.2.4-.6.8-1.2 1.4-1.6.6-.4 1.3-.8 2-.1 .8-.2 1.6-.3 2.5-.3.4 0 .9 0 1.4.1.5.1.9.2 1.3.3.4.1.8.3 1.1.4.3.2.6.3.7.5.2.2.3.3.4.5 0 .2.1.4.1.7v1c0 .3-.1.5-.4.5-.1 0-.3-.1-.6-.2-.9-.4-1.9-.7-3-.7-1.1 0-2 .2-2.6.6-.6.4-.9 1-.9 1.9 0 .6.2 1.1.6 1.5.4.4 1.1.8 2.1 1.1l2.8.9c1.4.5 2.5 1.1 3.1 2 .6.8 1 1.7 1 2.8 0 .8-.2 1.6-.5 2.2-.3.7-.8 1.2-1.4 1.7-.6.5-1.3.8-2.2 1-.8.3-1.7.4-2.7.4z" fill="#252F3E"/>
  <path d="M80.4 31.7c-5.5 4.1-13.5 6.2-20.4 6.2-9.6 0-18.3-3.6-24.9-9.5-.5-.5-.1-1.1.6-.7 7.1 4.1 15.8 6.6 24.9 6.6 6.1 0 12.8-1.3 19-3.9.9-.4 1.7.6.8 1.3z" fill="#FF9900"/>
  <path d="M82.7 29.1c-.7-.9-4.6-.4-6.4-.2-.5.1-.6-.4-.1-.7 3.1-2.2 8.2-1.6 8.8-.8.6.8-.2 6.1-3.1 8.7-.4.4-.9.2-.7-.3.7-1.7 2.2-5.5 1.5-6.7z" fill="#FF9900"/>
</svg>