<svg xmlns="http://www.w3.org/2000/svg" viewBox="0 0 160 40" fill="none">
  <path d="M26.3 11.5l3-3 .2-1.3A16 16 0 0 0 4.2 15l.9-.1 6-1s.3-.5.5-.5a10 10 0 0 1 14.7-1.9z" fill="#EA4335"/>
  <path d="M35.5 15a16 16 0 0 0-4.8-7.8l-4.4 4.3a10 10 0 0 1 3.7 7.9v1a5 5 0 0 1 0 10H20l-1 1v6l1 1h10a11 11 0 0 0 5.5-20.4z" fill="#4285F4"/>
  <path d="M10 37.4h10v-6H10a5 5 0 0 1-2-.5l-1.5.5-1.7 1.7-.3 1.4A11 11 0 0 0 10 37.4z" fill="#34A853"/>
  <path d="M10 16a11 11 0 0 0-5.5 20.5l3.5-3.5A5 5 0 1 1 15 23v-1l3-3 .2-1A11 11 0 0 0 10 16z" fill="#FBBC05"/>
  <text x="44" y="26" font-family="Product Sans, Arial, sans-serif" font-size="12" font-weight="500" fill="#5F6368">Google Cloud</text>
</svg>